# xmcd
#
# Track frame offsets:
#	150
#	35848
#	62860
#	93161
#	123238
#	159860
#	189790
#	228558
#	254034
#	278919
#	294648
#
# Disc length: 4321 seconds
#
# Revision: 0
# Processed by: cddbd v1.5.1PL0 Copyright (c) Steve Scherf et al.
# Submitted via: EasyCDDAExtractor 8.2.3.1
#
DISCID=9b10df0b
DTITLE=Various Artist - Subliminal Sessions Nine Disk 1
DYEAR=2005
DGENRE=House
TTITLE0=Nu Rhythmix - Babylon (Into A Groove) (with Gadjo feat. Alexandra Prin
TTITLE0=ce "So Many Times" (Acapella))
TTITLE1=Herd and Fitz feat. Abigail Bailey - I Just Can't Get Enough
TTITLE2=Deux - Sun Rising Up (Original Club Mix)
TTITLE3=Juliet - Avalon (F**k Me I'm Famous Remix)
TTITLE4=Rachel Star - Till There Was You
TTITLE5=Todd Gardner pres. Astral Babe - Make Me Feel
TTITLE6=Morillo feat. Leslie Carter - Waiting In the Darkness (Harry "Choo Cho
TTITLE6=o" Romero Remix)
TTITLE7=Red Carpet - Alright
TTITLE8=Proper Filthy Naughty - Fascination
TTITLE9=Who's Who - Not So Dirty
TTITLE10=H20 ft Billie - Take Me Higher
EXTD=(c) (r) Subliminal Records Inc.\nwww.subliminalrecords.com\n(c) FoxSoft C
EXTD=ollection\n
EXTT0=
EXTT1=
EXTT2=
EXTT3=
EXTT4=
EXTT5=
EXTT6=
EXTT7=
EXTT8=
EXTT9=
EXTT10=
PLAYORDER=
